<?xml version="1.0" encoding="UTF-8"?>
<svg id="Capa_2" data-name="Capa 2" xmlns="http://www.w3.org/2000/svg" viewBox="0 0 159.72 207.46">
  <defs>
    <style>
      .cls-1 {
        fill: #306b72;
      }

      .cls-2 {
        fill: #306971;
      }

      .cls-3 {
        fill: #306a72;
      }

      .cls-4 {
        fill: #306972;
      }
    </style>
  </defs>
  <g id="Capa_1-2" data-name="Capa 1">
    <g>
      <path class="cls-4" d="m2.33,129.33c1.26-20.7,7.99-39.28,22.77-54.28,3.92-3.97,5.71-7.72,5.43-13.27-.46-8.98-.15-8.94,8.28-6.09,12.2,4.13,24.44,8.12,36.62,12.28,3.47,1.19,6.72,1.1,10.16-.14,12.94-4.65,25.95-9.1,38.88-13.77,2.81-1.01,4.22-.57,3.79,2.54-1.15,8.52,1.78,14.57,7.92,21.14,14.71,15.77,21.82,35.27,20.42,57.03-2.36,36.78-29.21,67.08-65.98,71.93-42.56,5.62-79.3-21.39-86.98-63.89-.79-4.39-.88-8.9-1.31-13.5Zm77.2,63.2c1.99,0,4.01.17,5.98-.04,2.46-.26,4.92-.72,7.34-1.3,23.89-5.68,39.98-20.2,47-43.63,7.15-23.86.87-44.79-16.26-62.68-2.35-2.45-4.33-3.02-6.79-.36-2.37,2.57-4.69,2.19-7.79.61-19.72-10.02-39.53-10.21-59.25.2-2.99,1.58-5.82,2.11-8.26-1.03-1.6-2.06-3.08-2.17-5.13-.12-15.86,15.83-22.06,35.02-18.57,56.85,4.83,30.25,30.82,51.52,61.73,51.5Z"/>
      <path class="cls-3" d="m144.14,39.58c-17.64,6.06-34.78,11.45-51.51,17.92-8.86,3.42-16.62,3.38-25.51-.01-20.72-7.89-41.84-14.73-62.77-22.09-1.6-.56-2.91-1.94-4.35-2.95,1.32-1.28,2.42-3.14,4-3.76C27.27,19.44,50.59,10.36,73.91,1.27c3.51-1.37,6.87-1.85,10.74-.32,23.64,9.3,47.4,18.3,71.06,27.55,1.59.62,2.68,2.48,4.01,3.76-1.34,1.27-2.46,3.07-4.05,3.72-3.63,1.47-5.2,3.71-5.03,7.67.24,5.47-.14,10.98.13,16.45.15,3.01.86,6.05,1.74,8.96.99,3.3.14,5.64-3.07,6.88-3.39,1.31-5.31.07-5.32-3.59-.03-9.72.01-19.44.02-29.17,0-.99,0-1.97,0-3.6Z"/>
      <path class="cls-2" d="m77.91,143.81c-1.26-.8-3.63-1.77-5.29-3.44-8.21-8.33-16.21-16.88-24.34-25.3-2.05-2.12-2.71-4.42-1.44-7.1,1.51-3.19,4.85-3.8,7.74-1.4,7.65,6.37,15.35,12.68,22.85,19.23,2.67,2.33,4.52,2.09,6.97-.24,9.2-8.75,18.57-17.32,27.81-26.02,2.03-1.91,4.22-3.02,6.55-1.15,2.38,1.91,2.71,4.7,1.39,7.44-.57,1.19-1.58,2.22-2.52,3.18-9.58,9.78-19.22,19.51-28.78,29.31-2.75,2.82-5.62,5.29-10.93,5.5Z"/>
      <path class="cls-4" d="m128,126.06c1.11,0,2.55-.44,3.27.09,1.44,1.07,3.26,2.56,3.46,4.07.16,1.24-1.55,3.39-2.92,3.97-1.81.77-4.13.65-6.19.45-2.78-.27-4.69-1.97-4.44-4.91.23-2.81,2.2-3.95,4.97-3.75.62.05,1.24,0,1.86,0,0,.02,0,.05,0,.07Z"/>
      <path class="cls-3" d="m83.8,176.34c-.1,2.03-.12,3.27-.24,4.5-.23,2.42-1.82,3.83-3.99,3.27-1.41-.36-3.19-1.96-3.5-3.3-.57-2.48-.27-5.18-.18-7.78.09-2.35,1.51-4,3.78-3.5,1.44.32,2.95,1.83,3.74,3.2.67,1.17.34,2.9.39,3.6Z"/>
      <path class="cls-2" d="m31.76,126.03c2.98-.11,5.81.06,6.22,3.43.17,1.43-.86,4.22-1.63,4.33-3.15.43-6.46.35-9.58-.23-.76-.14-1.73-3.07-1.41-4.43.81-3.43,3.88-3.22,6.4-3.1Z"/>
      <path class="cls-1" d="m84.15,90.77c.08,3-1.02,5.06-4.35,5.17-2.81.09-4.47-1.86-4.4-5.17.06-2.76,1.12-4.86,4.21-5.09,2.76-.21,4.47,1.8,4.53,5.09Z"/>
    </g>
  </g>
</svg>